<?xml version="1.0" encoding="UTF-8" standalone="no"?>
<!DOCTYPE svg PUBLIC "-//W3C//DTD SVG 1.1//EN"
 "http://www.w3.org/Graphics/SVG/1.1/DTD/svg11.dtd">
<!-- Generated by graphviz version 2.43.0 (0)
 -->
<!-- Title: ChCase.PatternType.SpaceSeparated Pages: 1 -->
<svg width="224pt" height="188pt"
 viewBox="0.00 0.00 224.00 188.00" xmlns="http://www.w3.org/2000/svg" xmlns:xlink="http://www.w3.org/1999/xlink">
<g id="graph0" class="graph" transform="scale(1 1) rotate(0) translate(4 184)">
<title>ChCase.PatternType.SpaceSeparated</title>
<polygon fill="white" stroke="transparent" points="-4,4 -4,-184 220,-184 220,4 -4,4"/>
<!-- ChCase.PatternType.SpaceSeparated -->
<g id="node1" class="node">
<title>ChCase.PatternType.SpaceSeparated</title>
<g id="a_node1"><a xlink:href="ChCase.PatternType.SpaceSeparated.html" xlink:title="ChCase.PatternType.SpaceSeparated">
<polygon fill="none" stroke="black" stroke-width="2" points="216,-36 0,-36 0,0 216,0 216,-36"/>
<text text-anchor="middle" x="108" y="-14.3" font-family="Times" font-size="14.00">ChCase.PatternType.SpaceSeparated</text>
</a>
</g>
</g>
<!-- ChCase.PatternType.Pattern -->
<g id="node2" class="node">
<title>ChCase.PatternType.Pattern</title>
<g id="a_node2"><a xlink:href="ChCase.PatternType.Pattern.html" xlink:title="ChCase.PatternType.Pattern">
<polygon fill="none" stroke="black" stroke-width="2" points="193,-108 23,-108 23,-72 193,-72 193,-108"/>
<text text-anchor="middle" x="108" y="-86.3" font-family="Times" font-size="14.00">ChCase.PatternType.Pattern</text>
</a>
</g>
</g>
<!-- ChCase.PatternType.Pattern&#45;&gt;ChCase.PatternType.SpaceSeparated -->
<g id="edge1" class="edge">
<title>ChCase.PatternType.Pattern&#45;&gt;ChCase.PatternType.SpaceSeparated</title>
<path fill="none" stroke="black" d="M108,-61.67C108,-53.05 108,-43.79 108,-36.1"/>
<polygon fill="black" stroke="black" points="104.5,-61.7 108,-71.7 111.5,-61.7 104.5,-61.7"/>
</g>
<!-- GLib.Object -->
<g id="node3" class="node">
<title>GLib.Object</title>
<polygon fill="none" stroke="black" stroke-width="2" points="150.5,-180 65.5,-180 65.5,-144 150.5,-144 150.5,-180"/>
<text text-anchor="middle" x="108" y="-158.3" font-family="Times" font-size="14.00">GLib.Object</text>
</g>
<!-- GLib.Object&#45;&gt;ChCase.PatternType.Pattern -->
<g id="edge2" class="edge">
<title>GLib.Object&#45;&gt;ChCase.PatternType.Pattern</title>
<path fill="none" stroke="black" d="M108,-133.67C108,-125.05 108,-115.79 108,-108.1"/>
<polygon fill="black" stroke="black" points="104.5,-133.7 108,-143.7 111.5,-133.7 104.5,-133.7"/>
</g>
</g>
</svg>
