<?xml version="1.0" encoding="UTF-8" standalone="no"?>
<!DOCTYPE svg PUBLIC "-//W3C//DTD SVG 1.1//EN"
 "http://www.w3.org/Graphics/SVG/1.1/DTD/svg11.dtd">
<!-- Generated by graphviz version 2.43.0 (0)
 -->
<!-- Title: ChCase.PatternType.Sentence Pages: 1 -->
<svg width="187pt" height="188pt"
 viewBox="0.00 0.00 187.00 188.00" xmlns="http://www.w3.org/2000/svg" xmlns:xlink="http://www.w3.org/1999/xlink">
<g id="graph0" class="graph" transform="scale(1 1) rotate(0) translate(4 184)">
<title>ChCase.PatternType.Sentence</title>
<polygon fill="white" stroke="transparent" points="-4,4 -4,-184 183,-184 183,4 -4,4"/>
<!-- ChCase.PatternType.Sentence -->
<g id="node1" class="node">
<title>ChCase.PatternType.Sentence</title>
<g id="a_node1"><a xlink:href="ChCase.PatternType.Sentence.html" xlink:title="ChCase.PatternType.Sentence">
<polygon fill="none" stroke="black" stroke-width="2" points="179,-36 0,-36 0,0 179,0 179,-36"/>
<text text-anchor="middle" x="89.5" y="-14.3" font-family="Times" font-size="14.00">ChCase.PatternType.Sentence</text>
</a>
</g>
</g>
<!-- ChCase.PatternType.Pattern -->
<g id="node2" class="node">
<title>ChCase.PatternType.Pattern</title>
<g id="a_node2"><a xlink:href="ChCase.PatternType.Pattern.html" xlink:title="ChCase.PatternType.Pattern">
<polygon fill="none" stroke="black" stroke-width="2" points="174.5,-108 4.5,-108 4.5,-72 174.5,-72 174.5,-108"/>
<text text-anchor="middle" x="89.5" y="-86.3" font-family="Times" font-size="14.00">ChCase.PatternType.Pattern</text>
</a>
</g>
</g>
<!-- ChCase.PatternType.Pattern&#45;&gt;ChCase.PatternType.Sentence -->
<g id="edge1" class="edge">
<title>ChCase.PatternType.Pattern&#45;&gt;ChCase.PatternType.Sentence</title>
<path fill="none" stroke="black" d="M89.5,-61.67C89.5,-53.05 89.5,-43.79 89.5,-36.1"/>
<polygon fill="black" stroke="black" points="86,-61.7 89.5,-71.7 93,-61.7 86,-61.7"/>
</g>
<!-- GLib.Object -->
<g id="node3" class="node">
<title>GLib.Object</title>
<polygon fill="none" stroke="black" stroke-width="2" points="132,-180 47,-180 47,-144 132,-144 132,-180"/>
<text text-anchor="middle" x="89.5" y="-158.3" font-family="Times" font-size="14.00">GLib.Object</text>
</g>
<!-- GLib.Object&#45;&gt;ChCase.PatternType.Pattern -->
<g id="edge2" class="edge">
<title>GLib.Object&#45;&gt;ChCase.PatternType.Pattern</title>
<path fill="none" stroke="black" d="M89.5,-133.67C89.5,-125.05 89.5,-115.79 89.5,-108.1"/>
<polygon fill="black" stroke="black" points="86,-133.7 89.5,-143.7 93,-133.7 86,-133.7"/>
</g>
</g>
</svg>
