<?xml version="1.0" encoding="UTF-8" standalone="no"?>
<!DOCTYPE svg PUBLIC "-//W3C//DTD SVG 1.1//EN"
 "http://www.w3.org/Graphics/SVG/1.1/DTD/svg11.dtd">
<!-- Generated by graphviz version 2.43.0 (0)
 -->
<!-- Title: ChCase.PatternType.Camel Pages: 1 -->
<svg width="178pt" height="188pt"
 viewBox="0.00 0.00 178.00 188.00" xmlns="http://www.w3.org/2000/svg" xmlns:xlink="http://www.w3.org/1999/xlink">
<g id="graph0" class="graph" transform="scale(1 1) rotate(0) translate(4 184)">
<title>ChCase.PatternType.Camel</title>
<polygon fill="white" stroke="transparent" points="-4,4 -4,-184 174,-184 174,4 -4,4"/>
<!-- ChCase.PatternType.Camel -->
<g id="node1" class="node">
<title>ChCase.PatternType.Camel</title>
<g id="a_node1"><a xlink:href="ChCase.PatternType.Camel.html" xlink:title="ChCase.PatternType.Camel">
<polygon fill="none" stroke="black" stroke-width="2" points="168.5,-36 1.5,-36 1.5,0 168.5,0 168.5,-36"/>
<text text-anchor="middle" x="85" y="-14.3" font-family="Times" font-size="14.00">ChCase.PatternType.Camel</text>
</a>
</g>
</g>
<!-- ChCase.PatternType.Pattern -->
<g id="node2" class="node">
<title>ChCase.PatternType.Pattern</title>
<g id="a_node2"><a xlink:href="ChCase.PatternType.Pattern.html" xlink:title="ChCase.PatternType.Pattern">
<polygon fill="none" stroke="black" stroke-width="2" points="170,-108 0,-108 0,-72 170,-72 170,-108"/>
<text text-anchor="middle" x="85" y="-86.3" font-family="Times" font-size="14.00">ChCase.PatternType.Pattern</text>
</a>
</g>
</g>
<!-- ChCase.PatternType.Pattern&#45;&gt;ChCase.PatternType.Camel -->
<g id="edge1" class="edge">
<title>ChCase.PatternType.Pattern&#45;&gt;ChCase.PatternType.Camel</title>
<path fill="none" stroke="black" d="M85,-61.67C85,-53.05 85,-43.79 85,-36.1"/>
<polygon fill="black" stroke="black" points="81.5,-61.7 85,-71.7 88.5,-61.7 81.5,-61.7"/>
</g>
<!-- GLib.Object -->
<g id="node3" class="node">
<title>GLib.Object</title>
<polygon fill="none" stroke="black" stroke-width="2" points="127.5,-180 42.5,-180 42.5,-144 127.5,-144 127.5,-180"/>
<text text-anchor="middle" x="85" y="-158.3" font-family="Times" font-size="14.00">GLib.Object</text>
</g>
<!-- GLib.Object&#45;&gt;ChCase.PatternType.Pattern -->
<g id="edge2" class="edge">
<title>GLib.Object&#45;&gt;ChCase.PatternType.Pattern</title>
<path fill="none" stroke="black" d="M85,-133.67C85,-125.05 85,-115.79 85,-108.1"/>
<polygon fill="black" stroke="black" points="81.5,-133.7 85,-143.7 88.5,-133.7 81.5,-133.7"/>
</g>
</g>
</svg>
