<?xml version="1.0" encoding="UTF-8" standalone="no"?>
<!DOCTYPE svg PUBLIC "-//W3C//DTD SVG 1.1//EN"
 "http://www.w3.org/Graphics/SVG/1.1/DTD/svg11.dtd">
<!-- Generated by graphviz version 8.1.0 (20230707.0739)
 -->
<!-- Title: ChCase.PatternType.Sentence Pages: 1 -->
<svg width="187pt" height="188pt"
 viewBox="0.00 0.00 186.75 188.00" xmlns="http://www.w3.org/2000/svg" xmlns:xlink="http://www.w3.org/1999/xlink">
<g id="graph0" class="graph" transform="scale(1 1) rotate(0) translate(4 184)">
<title>ChCase.PatternType.Sentence</title>
<polygon fill="white" stroke="none" points="-4,4 -4,-184 182.75,-184 182.75,4 -4,4"/>
<!-- ChCase.PatternType.Sentence -->
<g id="node1" class="node">
<title>ChCase.PatternType.Sentence</title>
<g id="a_node1"><a xlink:href="ChCase.PatternType.Sentence.html" xlink:title="ChCase.PatternType.Sentence">
<polygon fill="none" stroke="black" stroke-width="2" points="178.75,-36 0,-36 0,0 178.75,0 178.75,-36"/>
<text text-anchor="middle" x="89.38" y="-11.82" font-family="Times" font-size="14.00">ChCase.PatternType.Sentence</text>
</a>
</g>
</g>
<!-- ChCase.PatternType.Pattern -->
<g id="node2" class="node">
<title>ChCase.PatternType.Pattern</title>
<g id="a_node2"><a xlink:href="ChCase.PatternType.Pattern.html" xlink:title="ChCase.PatternType.Pattern">
<polygon fill="none" stroke="black" stroke-width="2" points="173.88,-108 4.88,-108 4.88,-72 173.88,-72 173.88,-108"/>
<text text-anchor="middle" x="89.38" y="-83.83" font-family="Times" font-size="14.00">ChCase.PatternType.Pattern</text>
</a>
</g>
</g>
<!-- ChCase.PatternType.Pattern&#45;&gt;ChCase.PatternType.Sentence -->
<g id="edge1" class="edge">
<title>ChCase.PatternType.Pattern&#45;&gt;ChCase.PatternType.Sentence</title>
<path fill="none" stroke="black" d="M89.38,-60.81C89.38,-52.44 89.38,-43.54 89.38,-36.1"/>
<polygon fill="black" stroke="black" points="85.88,-60.7 89.38,-70.7 92.88,-60.7 85.88,-60.7"/>
</g>
<!-- GLib.Object -->
<g id="node3" class="node">
<title>GLib.Object</title>
<polygon fill="none" stroke="black" stroke-width="2" points="131.5,-180 47.25,-180 47.25,-144 131.5,-144 131.5,-180"/>
<text text-anchor="middle" x="89.38" y="-155.82" font-family="Times" font-size="14.00">GLib.Object</text>
</g>
<!-- GLib.Object&#45;&gt;ChCase.PatternType.Pattern -->
<g id="edge2" class="edge">
<title>GLib.Object&#45;&gt;ChCase.PatternType.Pattern</title>
<path fill="none" stroke="black" d="M89.38,-132.81C89.38,-124.44 89.38,-115.54 89.38,-108.1"/>
<polygon fill="black" stroke="black" points="85.88,-132.7 89.38,-142.7 92.88,-132.7 85.88,-132.7"/>
</g>
</g>
</svg>
