<?xml version="1.0" encoding="UTF-8" standalone="no"?>
<!DOCTYPE svg PUBLIC "-//W3C//DTD SVG 1.1//EN"
 "http://www.w3.org/Graphics/SVG/1.1/DTD/svg11.dtd">
<!-- Generated by graphviz version 8.1.0 (20230707.0739)
 -->
<!-- Title: ChCase.PatternType.SpaceSeparated Pages: 1 -->
<svg width="224pt" height="188pt"
 viewBox="0.00 0.00 223.50 188.00" xmlns="http://www.w3.org/2000/svg" xmlns:xlink="http://www.w3.org/1999/xlink">
<g id="graph0" class="graph" transform="scale(1 1) rotate(0) translate(4 184)">
<title>ChCase.PatternType.SpaceSeparated</title>
<polygon fill="white" stroke="none" points="-4,4 -4,-184 219.5,-184 219.5,4 -4,4"/>
<!-- ChCase.PatternType.SpaceSeparated -->
<g id="node1" class="node">
<title>ChCase.PatternType.SpaceSeparated</title>
<g id="a_node1"><a xlink:href="ChCase.PatternType.SpaceSeparated.html" xlink:title="ChCase.PatternType.SpaceSeparated">
<polygon fill="none" stroke="black" stroke-width="2" points="215.5,-36 0,-36 0,0 215.5,0 215.5,-36"/>
<text text-anchor="middle" x="107.75" y="-11.82" font-family="Times" font-size="14.00">ChCase.PatternType.SpaceSeparated</text>
</a>
</g>
</g>
<!-- ChCase.PatternType.Pattern -->
<g id="node2" class="node">
<title>ChCase.PatternType.Pattern</title>
<g id="a_node2"><a xlink:href="ChCase.PatternType.Pattern.html" xlink:title="ChCase.PatternType.Pattern">
<polygon fill="none" stroke="black" stroke-width="2" points="192.25,-108 23.25,-108 23.25,-72 192.25,-72 192.25,-108"/>
<text text-anchor="middle" x="107.75" y="-83.83" font-family="Times" font-size="14.00">ChCase.PatternType.Pattern</text>
</a>
</g>
</g>
<!-- ChCase.PatternType.Pattern&#45;&gt;ChCase.PatternType.SpaceSeparated -->
<g id="edge1" class="edge">
<title>ChCase.PatternType.Pattern&#45;&gt;ChCase.PatternType.SpaceSeparated</title>
<path fill="none" stroke="black" d="M107.75,-60.81C107.75,-52.44 107.75,-43.54 107.75,-36.1"/>
<polygon fill="black" stroke="black" points="104.25,-60.7 107.75,-70.7 111.25,-60.7 104.25,-60.7"/>
</g>
<!-- GLib.Object -->
<g id="node3" class="node">
<title>GLib.Object</title>
<polygon fill="none" stroke="black" stroke-width="2" points="149.88,-180 65.62,-180 65.62,-144 149.88,-144 149.88,-180"/>
<text text-anchor="middle" x="107.75" y="-155.82" font-family="Times" font-size="14.00">GLib.Object</text>
</g>
<!-- GLib.Object&#45;&gt;ChCase.PatternType.Pattern -->
<g id="edge2" class="edge">
<title>GLib.Object&#45;&gt;ChCase.PatternType.Pattern</title>
<path fill="none" stroke="black" d="M107.75,-132.81C107.75,-124.44 107.75,-115.54 107.75,-108.1"/>
<polygon fill="black" stroke="black" points="104.25,-132.7 107.75,-142.7 111.25,-132.7 104.25,-132.7"/>
</g>
</g>
</svg>
